<svg width="512px" height="73px" viewBox="0 0 512 73" version="1.1" xmlns="http://www.w3.org/2000/svg" xmlns:xlink="http://www.w3.org/1999/xlink">
  <defs>
      <polygon id="path-cmpk_w1ynd-1" points="-0.000199090909 0.0507018182 29.1998009 0.0507018182 29.1998009 16.5909091 -0.000199090909 16.5909091"></polygon>
      <polygon id="path-cmpk_w1ynd-3" points="4.65057059e-05 0.361947273 72.9999587 0.361947273 72.9999587 72.3363636 4.65057059e-05 72.3363636"></polygon>
  </defs>
  <g id="Page-1" stroke="none" stroke-width="1" fill="none" fill-rule="evenodd">
      <g id="Artboard" transform="translate(-965.000000, -1237.000000)">
          <rect fill="#FFFFFF" x="0" y="0" width="2480" height="5524"></rect>
          <g id="标语/浅色背景下使用/彩色/短" transform="translate(964.999981, 1231.000000)">
              <g id="编组-6备份" transform="translate(94.000019, 0.000000)" fill="#666666" font-family="PingFangSC-Regular, PingFang SC" font-size="60" font-weight="normal">
                  <text id="微信支付分优享">
                      <tspan x="0" y="64">微信支付分优享</tspan>
                  </text>
              </g>
              <g id="logo" transform="translate(0.000000, 5.461358)">
                  <path d="M73.4009861,56.7754859 C73.3307273,56.6513853 73.2464167,56.537983 73.1426498,56.4416981 C72.8907989,56.2041952 72.5513947,56.0565583 72.1763207,56.0565583 C72.0087804,56.0565583 71.8509682,56.0897231 71.7028842,56.1432147 L51.9623147,65.4753653 C51.7158683,65.5641614 51.4521275,65.6155134 51.1754158,65.6155134 C50.7117075,65.6155134 50.2804264,65.4785748 49.9183232,65.2442814 L44.9753443,61.7609062 C44.8467165,61.6667609 44.6889044,61.6100598 44.5170405,61.6100598 C44.0933257,61.6100598 43.7495979,61.9502666 43.7495979,62.369641 C43.7495979,62.4787639 43.7777014,62.5900265 43.8230994,62.689521 L48.0126875,71.7873781 L48.1121308,72.005624 C48.3747907,72.4677917 48.8752498,72.7823225 49.4502913,72.7823225 C49.6988995,72.7823225 49.9334559,72.7224119 50.1409896,72.6186381 L50.3085299,72.5223532 C50.3085299,72.5223532 72.9134979,58.6348551 72.9945658,58.5781539 C73.3501836,58.3256734 73.5825782,57.9148577 73.5825782,57.4484106 C73.5825782,57.2034189 73.5134002,56.9755446 73.4009861,56.7754859" id="Fill-1" fill="#07C160"></path>
                  <g id="编组">
                      <g transform="translate(43.800000, 56.047409)">
                          <mask id="mask-cmpk_w1ynd-2" fill="white">
                              <use xlink:href="#path-cmpk_w1ynd-1"></use>
                          </mask>
                          <g id="Clip-2"></g>
                          <path d="M29.0212827,0.76212 C28.9529282,0.639347273 28.8699736,0.527192727 28.7691009,0.431629091 C28.5222282,0.196701818 28.19041,0.0507018182 27.8227555,0.0507018182 C27.6595009,0.0507018182 27.5048736,0.0845472727 27.3595373,0.136310909 L8.03776455,9.36550182 C7.79752818,9.45376545 7.53871,9.50353818 7.26794636,9.50353818 C6.81401909,9.50353818 6.39128273,9.36815636 6.03756455,9.13721091 L1.19965545,5.69227455 C1.07422818,5.59870182 0.918937273,5.54295636 0.750373636,5.54295636 C0.335600909,5.54295636 -0.000199090909,5.87942 -0.000199090909,6.29352909 C-0.000199090909,6.40170182 0.02701,6.51252909 0.0714736364,6.61008364 L4.17141909,15.6070018 L4.27030091,15.8226836 C4.52712818,16.2805927 5.01689182,16.5911745 5.57965545,16.5911745 C5.82254636,16.5911745 6.05216455,16.5314473 6.25523727,16.4285836 L6.41981909,16.3343473 C6.41981909,16.3343473 28.5447918,2.60105636 28.6237645,2.54464727 C28.97151,2.29445636 29.1998009,1.88897455 29.1998009,1.42774727 C29.1998009,1.18485636 29.13211,0.959883636 29.0212827,0.76212" id="Fill-1" fill="#FFC300" mask="url(#mask-cmpk_w1ynd-2)"></path>
                      </g>
                      <path d="M36.5205727,26.1681773 C33.7585182,26.1681773 31.5121091,28.41525 31.5121091,31.1766409 C31.5121091,33.9386955 33.7585182,36.1857682 36.5205727,36.1857682 C39.2826273,36.1857682 41.5297,33.9386955 41.5297,31.1766409 C41.5297,28.41525 39.2826273,26.1681773 36.5205727,26.1681773" id="Fill-3" fill="#07C160"></path>
                      <g transform="translate(0.000000, 0.301955)">
                          <mask id="mask-cmpk_w1ynd-4" fill="white">
                              <use xlink:href="#path-cmpk_w1ynd-3"></use>
                          </mask>
                          <g id="Clip-6"></g>
                          <path d="M47.596,50.57732 L39.7066909,39.3101018 L39.5918818,39.1468473 L39.4034091,39.2125473 C38.3893727,39.5636109 37.4463455,39.7341655 36.5205727,39.7341655 C35.5954636,39.7341655 34.6524364,39.5636109 33.6384,39.2125473 L33.4499273,39.1468473 L33.3351182,39.3101018 L25.4458091,50.57732 L22.2908818,48.3687382 L30.0866182,37.2362382 L30.2100545,37.0603745 L30.0633909,36.9037564 C28.5144636,35.2453291 27.6610273,33.1044382 27.6610273,30.8752836 C27.6610273,25.9902564 31.6355455,22.0157382 36.5205727,22.0157382 C41.4056,22.0157382 45.3794545,25.9902564 45.3794545,30.8752836 C45.3794545,33.1044382 44.5266818,35.2459927 42.9784182,36.9037564 L42.8317545,37.0603745 L42.9551909,37.2362382 L50.7496,48.3687382 L47.596,50.57732 Z M72.3576,33.2238927 C72.8805455,32.5775109 73.0988818,31.7499564 72.9581909,30.9529291 C72.8175,30.1552382 72.3284,29.4531109 71.6163182,29.0257291 L61.6923,23.0676018 C61.6179727,23.0078745 61.5078091,22.8174109 61.4952,22.7490564 L61.2954455,11.1480291 C61.2815091,10.3184836 60.9171727,9.54335636 60.2966727,9.02306545 C59.6768364,8.50277455 58.8506091,8.27581091 58.0296909,8.40853818 L46.5965636,10.22292 C46.5215727,10.2149564 46.2952727,10.1505836 46.2415182,10.10612 L38.6316,1.34744727 C38.0860909,0.720974545 37.3096364,0.361947273 36.5,0.361947273 C35.6903636,0.361947273 34.9132455,0.720974545 34.3684,1.34744727 L26.7764,10.0875382 C26.7047273,10.1505836 26.499,10.2249109 26.4299818,10.2255745 L14.9696455,8.40853818 C14.1493909,8.27780182 13.3231636,8.50277455 12.7033273,9.02306545 C12.0828273,9.54335636 11.7191545,10.3184836 11.7045545,11.1480291 L11.5067909,22.7225109 C11.4921909,22.8174109 11.3820273,23.0078745 11.3302636,23.0523382 L1.38368182,29.0257291 C0.6716,29.4531109 0.1825,30.1552382 0.0418090909,30.9529291 C-0.0988818182,31.7499564 0.119454545,32.5775109 0.643063636,33.2245564 L7.93111818,42.2181564 C7.98022727,42.2997836 8.01871818,42.5161291 8.00743636,42.58382 L4.22736364,53.5530655 C3.95726364,54.3381473 4.03424545,55.1915836 4.43906364,55.8923836 C4.84388182,56.5938473 5.54335455,57.0869291 6.35896364,57.2462018 L17.7224091,59.4501382 C17.8133273,59.4813291 17.9812273,59.6226836 18.0170636,59.6817473 L22.1720909,70.5142836 C22.4700636,71.2894109 23.0766273,71.89332 23.8378182,72.17072 C24.5996727,72.4474564 25.4517818,72.37512 26.1784636,71.9722927 L36.3015727,66.3566018 C36.3905,66.32342 36.6081727,66.32342 36.6752,66.34532 L43.3447455,70.0444291 L40.4731909,63.7438655 C40.2157,63.1764564 40.0796545,62.5533018 40.0796545,61.9407655 C40.0796545,59.5423836 42.0314091,57.5912927 44.4297909,57.5912927 C45.3562273,57.5912927 46.2395273,57.8779836 46.9874455,58.4221655 L51.0734545,61.3322109 L68.5722182,52.9730473 L64.9998636,42.6097018 C64.9812818,42.5161291 65.0197727,42.2997836 65.0536182,42.2393927 L72.3576,33.2238927 Z" id="Fill-5" fill="#07C160" mask="url(#mask-cmpk_w1ynd-4)"></path>
                      </g>
                  </g>
              </g>
          </g>
      </g>
  </g>
</svg>